<svg xmlns="http://www.w3.org/2000/svg" viewBox="0 0 200 100" width="200" height="100">
	<style>
		tspan { white-space:pre }
	</style>
	<path id="Bazar" fill="#ffffff" d="M49.75 71L34.95 71L34.95 28.34L48.9 28.34Q55.84 28.34 59.33 31.21Q62.84 34.09 62.84 39.71Q62.84 42.7 61.14 45.01Q59.44 47.3 56.51 48.56Q59.97 49.53 61.96 52.25Q63.98 54.95 63.98 58.7Q63.98 64.44 60.26 67.72Q56.54 71 49.75 71ZM49.95 51.05L40.58 51.05L40.58 66.4L49.86 66.4Q53.79 66.4 56.04 64.38Q58.33 62.33 58.33 58.75Q58.33 51.05 49.95 51.05ZM40.58 32.97L40.58 46.54L49.07 46.54Q52.76 46.54 54.96 44.69Q57.19 42.85 57.19 39.68Q57.19 36.17 55.14 34.58Q53.09 32.97 48.9 32.97L40.58 32.97ZM96.71 71L91.03 71Q90.56 70.06 90.26 67.66Q86.48 71.59 81.24 71.59Q76.55 71.59 73.54 68.95Q70.55 66.28 70.55 62.21Q70.55 57.26 74.3 54.54Q78.08 51.78 84.9 51.78L90.18 51.78L90.18 49.29Q90.18 46.45 88.48 44.78Q86.78 43.08 83.47 43.08Q80.57 43.08 78.6 44.54Q76.64 46.01 76.64 48.09L71.19 48.09Q71.19 45.72 72.86 43.52Q74.56 41.29 77.43 40Q80.33 38.71 83.79 38.71Q89.27 38.71 92.37 41.47Q95.48 44.19 95.6 49L95.6 63.59Q95.6 67.95 96.71 70.53L96.71 71ZM82.03 66.87Q84.58 66.87 86.87 65.55Q89.15 64.23 90.18 62.12L90.18 55.62L85.93 55.62Q75.97 55.62 75.97 61.45Q75.97 64 77.67 65.43Q79.37 66.87 82.03 66.87ZM126.86 43.14L109.19 66.58L127.73 66.58L127.73 71L102.57 71L102.57 67.02L120.06 43.78L102.83 43.78L102.83 39.3L126.86 39.3L126.86 43.14ZM159.08 71L153.4 71Q152.93 70.06 152.64 67.66Q148.86 71.59 143.61 71.59Q138.93 71.59 135.91 68.95Q132.92 66.28 132.92 62.21Q132.92 57.26 136.67 54.54Q140.45 51.78 147.28 51.78L152.55 51.78L152.55 49.29Q152.55 46.45 150.85 44.78Q149.15 43.08 145.84 43.08Q142.94 43.08 140.98 44.54Q139.01 46.01 139.01 48.09L133.56 48.09Q133.56 45.72 135.23 43.52Q136.93 41.29 139.8 40Q142.71 38.71 146.16 38.71Q151.64 38.71 154.75 41.47Q157.85 44.19 157.97 49L157.97 63.59Q157.97 67.95 159.08 70.53L159.08 71ZM144.4 66.87Q146.95 66.87 149.24 65.55Q151.52 64.23 152.55 62.12L152.55 55.62L148.3 55.62Q138.34 55.62 138.34 61.45Q138.34 64 140.04 65.43Q141.74 66.87 144.4 66.87ZM181.79 39.13L181.79 44.16Q180.56 43.96 179.12 43.96Q173.79 43.96 171.88 48.5L171.88 71L166.46 71L166.46 39.3L171.74 39.3L171.83 42.96Q174.49 38.71 179.38 38.71Q180.97 38.71 181.79 39.13Z" />
	<path id="" fill="#00b4ff" d="M189 57.25C190.4 57.25 191.69 57.6 192.88 58.3C194.06 58.99 195.01 59.94 195.7 61.13C196.4 62.31 196.75 63.6 196.75 65C196.75 66.4 196.4 67.69 195.7 68.88C195.01 70.06 194.06 71.01 192.88 71.7C191.69 72.4 190.4 72.75 189 72.75C187.6 72.75 186.31 72.4 185.12 71.7C183.94 71.01 182.99 70.06 182.3 68.88C181.6 67.69 181.25 66.4 181.25 65C181.25 63.6 181.6 62.31 182.3 61.13C182.99 59.94 183.94 58.99 185.12 58.3C186.31 57.6 187.6 57.25 189 57.25ZM189 71.25C190.13 71.25 191.17 70.97 192.13 70.41C193.08 69.84 193.84 69.08 194.41 68.12C194.97 67.17 195.25 66.12 195.25 65C195.25 63.87 194.97 62.83 194.41 61.87C193.84 60.92 193.08 60.16 192.13 59.59C191.17 59.03 190.13 58.75 189 58.75C187.88 58.75 186.83 59.03 185.87 59.59C184.92 60.16 184.16 60.92 183.59 61.87C183.03 62.83 182.75 63.87 182.75 65C182.75 66.12 183.03 67.17 183.59 68.12C184.16 69.08 184.92 69.84 185.87 70.41C186.83 70.97 187.88 71.25 189 71.25ZM190.94 68C191.02 68.06 191.11 68.08 191.22 68.06C191.32 68.04 191.41 67.99 191.47 67.91L192.03 67.09C192.09 67.01 192.12 66.92 192.11 66.81C192.1 66.71 192.05 66.62 191.97 66.56L189.88 65.06L189.88 60.62C189.88 60.52 189.84 60.43 189.77 60.36C189.69 60.29 189.6 60.25 189.5 60.25L188.5 60.25C188.4 60.25 188.31 60.29 188.23 60.36C188.16 60.43 188.12 60.52 188.12 60.62L188.12 65.75C188.12 65.87 188.18 65.98 188.28 66.06Z" />
</svg>