<svg xmlns="http://www.w3.org/2000/svg" viewBox="0 0 200 100" width="200" height="100">
	<style>
		tspan { white-space:pre }
	</style>
	<path fill="#0a0f2e" d="M14.75 71L-0.05 71L-0.05 28.34L13.9 28.34Q20.84 28.34 24.33 31.21Q27.84 34.09 27.84 39.71Q27.84 42.7 26.14 45.01Q24.44 47.3 21.51 48.56Q24.97 49.53 26.96 52.25Q28.98 54.95 28.98 58.7Q28.98 64.44 25.26 67.72Q21.54 71 14.75 71ZM14.95 51.05L5.58 51.05L5.58 66.4L14.86 66.4Q18.79 66.4 21.04 64.38Q23.33 62.33 23.33 58.75Q23.33 51.05 14.95 51.05ZM5.58 32.97L5.58 46.54L14.07 46.54Q17.76 46.54 19.96 44.69Q22.19 42.85 22.19 39.68Q22.19 36.17 20.14 34.58Q18.09 32.97 13.9 32.97L5.58 32.97ZM61.71 71L56.03 71Q55.56 70.06 55.26 67.66Q51.48 71.59 46.24 71.59Q41.55 71.59 38.54 68.95Q35.55 66.28 35.55 62.21Q35.55 57.26 39.3 54.54Q43.08 51.78 49.9 51.78L55.18 51.78L55.18 49.29Q55.18 46.45 53.48 44.78Q51.78 43.08 48.47 43.08Q45.57 43.08 43.6 44.54Q41.64 46.01 41.64 48.09L36.19 48.09Q36.19 45.72 37.86 43.52Q39.56 41.29 42.43 40Q45.33 38.71 48.79 38.71Q54.27 38.71 57.37 41.47Q60.48 44.19 60.6 49L60.6 63.59Q60.6 67.95 61.71 70.53L61.71 71ZM47.03 66.87Q49.58 66.87 51.87 65.55Q54.15 64.23 55.18 62.12L55.18 55.62L50.93 55.62Q40.97 55.62 40.97 61.45Q40.97 64 42.67 65.43Q44.37 66.87 47.03 66.87ZM91.86 43.14L74.19 66.58L92.73 66.58L92.73 71L67.57 71L67.57 67.02L85.06 43.78L67.83 43.78L67.83 39.3L91.86 39.3L91.86 43.14ZM124.08 71L118.4 71Q117.93 70.06 117.64 67.66Q113.86 71.59 108.61 71.59Q103.93 71.59 100.91 68.95Q97.92 66.28 97.92 62.21Q97.92 57.26 101.67 54.54Q105.45 51.78 112.28 51.78L117.55 51.78L117.55 49.29Q117.55 46.45 115.85 44.78Q114.15 43.08 110.84 43.08Q107.94 43.08 105.98 44.54Q104.01 46.01 104.01 48.09L98.56 48.09Q98.56 45.72 100.23 43.52Q101.93 41.29 104.8 40Q107.71 38.71 111.16 38.71Q116.64 38.71 119.75 41.47Q122.85 44.19 122.97 49L122.97 63.59Q122.97 67.95 124.08 70.53L124.08 71ZM109.4 66.87Q111.95 66.87 114.24 65.55Q116.52 64.23 117.55 62.12L117.55 55.62L113.3 55.62Q103.34 55.62 103.34 61.45Q103.34 64 105.04 65.43Q106.74 66.87 109.4 66.87ZM146.79 39.13L146.79 44.16Q145.56 43.96 144.12 43.96Q138.79 43.96 136.88 48.5L136.88 71L131.46 71L131.46 39.3L136.74 39.3L136.83 42.96Q139.49 38.71 144.38 38.71Q145.97 38.71 146.79 39.13Z" />
	<path fill="#00b4ff" d="M154 57.25C155.4 57.25 156.69 57.6 157.88 58.3C159.06 58.99 160.01 59.94 160.7 61.13C161.4 62.31 161.75 63.6 161.75 65C161.75 66.4 161.4 67.69 160.7 68.88C160.01 70.06 159.06 71.01 157.88 71.7C156.69 72.4 155.4 72.75 154 72.75C152.6 72.75 151.31 72.4 150.12 71.7C148.94 71.01 147.99 70.06 147.3 68.88C146.6 67.69 146.25 66.4 146.25 65C146.25 63.6 146.6 62.31 147.3 61.13C147.99 59.94 148.94 58.99 150.12 58.3C151.31 57.6 152.6 57.25 154 57.25ZM154 71.25C155.13 71.25 156.17 70.97 157.13 70.41C158.08 69.84 158.84 69.08 159.41 68.12C159.97 67.17 160.25 66.12 160.25 65C160.25 63.87 159.97 62.83 159.41 61.87C158.84 60.92 158.08 60.16 157.13 59.59C156.17 59.03 155.13 58.75 154 58.75C152.88 58.75 151.83 59.03 150.87 59.59C149.92 60.16 149.16 60.92 148.59 61.87C148.03 62.83 147.75 63.87 147.75 65C147.75 66.12 148.03 67.17 148.59 68.12C149.16 69.08 149.92 69.84 150.87 70.41C151.83 70.97 152.88 71.25 154 71.25ZM155.94 68C156.02 68.06 156.11 68.08 156.22 68.06C156.32 68.04 156.41 67.99 156.47 67.91L157.03 67.09C157.09 67.01 157.12 66.92 157.11 66.81C157.1 66.71 157.05 66.62 156.97 66.56L154.88 65.06L154.88 60.62C154.88 60.52 154.84 60.43 154.77 60.36C154.69 60.29 154.6 60.25 154.5 60.25L153.5 60.25C153.4 60.25 153.31 60.29 153.23 60.36C153.16 60.43 153.12 60.52 153.12 60.62L153.12 65.75C153.12 65.87 153.18 65.98 153.28 66.06Z" />
</svg>